<?xml version="1.0" encoding="UTF-8"?>
<svg width="1200pt" height="1200pt" version="1.1" viewBox="0 0 1200 1200" xmlns="http://www.w3.org/2000/svg">
 <defs>
  <clipPath id="b">
   <path d="m175 416h850v192h-850z"/>
  </clipPath>
  <clipPath id="a">
   <path d="m1134.4 600-534.37 534.37-534.37-534.37 534.37-534.37z"/>
  </clipPath>
 </defs>
 <g clip-path="url(#b)">
  <g clip-path="url(#a)">
   <path d="m188.54 605.34 6.6836-6.6836c223.2-223.2 586.37-223.2 809.57 0l6.6797 6.6836c2.9492 2.9492 7.7383 2.9492 10.688 0 2.9492-2.9492 2.9492-7.7383 0-10.688l-6.6836-6.6836c-229.09-229.09-601.85-229.09-830.94 0l-6.6836 6.6836c-2.9492 2.9492-2.9492 7.7383 0 10.688 2.9492 2.9492 7.7344 2.9492 10.688 0z"/>
  </g>
 </g>
</svg>
