<?xml version="1.0" encoding="UTF-8"?>
<svg width="1200pt" height="1200pt" version="1.1" viewBox="0 0 1200 1200" xmlns="http://www.w3.org/2000/svg">
 <path d="m618.14 514.92c1.5-1.5469 3.9844-1.5469 5.5312-0.046875s1.5469 3.9844 0.046875 5.5312c-0.75 0.79688-2.1094 2.3906-3.75 4.3594-5.2969 6.3281-13.5 16.125-20.438 19.172-7.9688 4.5-14.625 13.266-18.094 17.859-1.5 2.0156-2.5312 3.375-3.5625 3.9844-2.2969 1.4062-4.125 1.0312-5.5312-1.2656-0.1875-0.28125-0.28125-0.5625-0.375-0.84375-0.42188-1.1719-0.51562-2.8125-0.65625-5.2969-0.28125-4.3594-0.79688-12.094-2.7188-23.719-0.75-4.5-1.5938-10.875-1.9219-17.578-0.23438-5.0625-0.23438-10.312 0.28125-15.047 0.23438-2.1562 2.1562-3.7031 4.2656-3.4688 2.1562 0.23438 3.7031 2.1562 3.4688 4.2656-0.46875 4.3125-0.46875 9.1875-0.23438 13.875 0.32812 6.2812 1.0781 12.328 1.8281 16.641 1.4062 8.3438 2.0625 14.719 2.4844 19.359 4.125-5.1094 10.078-11.625 17.203-15.609 0.14062-0.09375 0.28125-0.14062 0.42188-0.1875 5.2031-2.1562 12.797-11.25 17.719-17.109 1.7344-2.0625 3.1406-3.75 4.1719-4.8281zm-157.4-43.219c0.375-2.1094 2.3438-3.5625 4.5-3.1875 2.1094 0.375 3.5625 2.3438 3.1875 4.5-1.0781 6.2812-3.9375 12.562-7.2656 19.828-5.8125 12.703-13.078 28.5-13.078 51.281 0 2.1562-1.7344 3.8906-3.8906 3.8906-1.875 0-3.4219-1.3125-3.7969-3.0469-5.8594-19.547-18.938-33.375-26.625-41.484-4.4531-4.6875-7.4531-7.8281-7.2188-10.922 0.14062-2.1562 2.0156-3.75 4.1719-3.6094s3.75 2.0156 3.6094 4.1719c-0.046876 0.375 2.0625 1.7812 5.0625 4.9688 6.0469 6.375 15.234 16.031 22.172 29.25 2.4375-15.703 7.9219-27.703 12.516-37.781 3.0938-6.75 5.7656-12.562 6.6562-17.859zm-137.34 81.234c-1.125-1.8281-0.5625-4.2188 1.3125-5.3438 1.8281-1.125 4.2188-0.5625 5.3438 1.3125 7.0312 11.484 8.3906 21.281 9.7969 31.734 1.2188 9 2.5312 18.469 7.9688 29.812 0.9375 1.9219 0.09375 4.2656-1.8281 5.2031-0.1875 0.09375-0.375 0.14062-0.5625 0.23438-32.438 9.6562-39.047 8.0625-67.5 0.98438l-7.5-1.8281c-2.1094-0.51562-3.375-2.625-2.8594-4.6875 0.51562-2.1094 2.625-3.375 4.6875-2.8594 3.5625 0.89062 5.6719 1.3594 7.5469 1.8281 25.5 6.2812 32.344 8.0156 59.156 0.32812-4.4062-10.594-5.625-19.5-6.7969-27.984-1.3125-9.6094-2.5781-18.609-8.7188-28.688zm42.047 48.984c1.875 6.2812 4.7812 13.219 8.8594 20.156 5.625 9.4688 13.453 19.031 23.859 27.094 4.4062 3.4219 10.969 9.375 18.047 15.797 10.031 9.0938 21 19.031 28.406 24.141 0.65625 0.51562 1.5 0.84375 2.4375 0.84375 2.1562 0 3.8906-1.7344 3.8906-3.8906 0-20.25-5.2969-39.469-10.453-58.125-4.4062-15.984-8.6719-31.547-9.2812-46.734v-0.09375c-0.70312-17.672-12.797-36.188-23.344-52.359-7.4062-11.391-14.016-21.516-14.672-28.172-0.1875-2.1562-2.1094-3.7031-4.2188-3.5156-2.1562 0.1875-3.7031 2.1094-3.5156 4.2188 0.79688 8.625 7.9219 19.5 15.891 31.734 9.9844 15.328 21.422 32.859 22.078 48.375-0.32812 7.4531-5.1094 9.375-11.062 9.1875-5.625-0.1875-12.375-2.0625-18.094-3.6562-6.6094-1.8281-12-3.3281-15.141-1.7344-4.5 2.3438-6.6562 5.0625-7.9219 7.5-0.23438-1.3125-0.375-2.5312-0.46875-3.7031-0.84375-10.547-1.8281-19.547-4.3594-28.266-2.5312-8.8125-6.5625-17.203-13.359-26.297-1.3125-1.7344-3.75-2.0625-5.4375-0.79688-1.7344 1.3125-2.0625 3.75-0.79688 5.4375 6.1875 8.25 9.7969 15.797 12.094 23.766 2.2969 8.0625 3.2812 16.641 4.0781 26.719 0.28125 3.5625 1.0312 7.5938 2.2969 12l0.046875 0.09375c0.046875 0.09375 0.046875 0.1875 0.09375 0.28125zm16.266 310.08c-0.046875 0.046875-0.046875 0.09375-0.046875 0.14062 0.32812 0.70312 0.23438 0.46875 0.046875-0.14062zm155.16-72.281v-0.09375c-0.51562-15.984-3.3281-98.531 7.2188-113.81 5.8594-8.4844 12.047-24.188 17.203-40.969 6-19.5 10.594-40.219 11.578-52.641 2.0625-25.312 22.359-46.219 40.172-64.641 12.469-12.844 23.672-24.422 25.5-34.312 0.375-2.1094 2.4375-3.5156 4.5469-3.1406s3.5156 2.4375 3.1406 4.5469c-1.5 8.2031-7.4062 16.453-15.141 25.172 20.906 18.328 29.109 16.359 37.219 14.438 9.6562-2.2969 19.219-4.5938 40.547 13.688 2.7656-0.14062 12.141-4.5469 22.219-10.078 11.109-6.0938 22.5-13.547 26.578-18.234 0.51562-0.60938 0.84375-1.0312 0.89062-1.1719 1.4062-5.625 2.1562-9.6094 2.7188-12.328 0.79688-4.2188 1.1719-6 2.7188-7.6406 1.3594-1.4531 2.625-1.7344 4.7812-2.25 2.6719-0.60938 7.6406-1.7812 17.625-7.4062 0.28125-0.14062-0.42188-4.125-0.65625-10.078-0.375-10.5-0.9375-25.125 3.7031-38.391 5.9531-17.016-0.09375-19.688-5.2969-21.984-1.6875-0.75-3.375-1.5-4.8281-2.4844-6.375-4.2656-8.5312-10.969 4.7812-30.75 12.281-18.234 4.0312-27.656-4.7344-33.562-2.2969-1.5469-4.5938-2.8594-6.6562-4.0312-6.3281-3.6094-11.016-6.3281-9.375-11.438 6.3281-19.641 7.4531-28.641 3.2344-31.172-4.875-2.9062-17.344-0.09375-37.078 4.4062-4.4531 1.0312-6.5625-1.0312-7.5-5.2031-0.46875-2.0625-0.51562-4.7812-0.51562-8.0156-0.09375-11.953-0.32812-32.531-28.875-36.938-3.75-0.5625-6.8438-3.0469-10.641-6.0938-9.4688-7.5938-24.141-19.359-59.859 0.1875-8.9062 4.875-14.906-1.5-21.75-8.7188-2.6719-2.8125-5.4844-5.8125-8.4844-7.9219-8.5312-6.0938-20.484-5.7656-42.422 25.031-9.2344 12.984-19.734 7.9219-30.375 2.8125-7.5938-3.6562-15.328-7.3594-21.047-0.28125-0.60938 0.75-0.65625 1.8281-0.70312 3.3281-0.14062 3-0.28125 6.9375-3.1875 12.891-2.8594 5.9062-9.9375 6.9844-17.766 8.1562-7.7812 1.1719-16.594 2.4844-19.031 9.8438 19.922 6.375 23.25 20.484 26.203 32.953 2.0625 8.7656 3.8906 16.406 13.641 17.625 27.328 3.375 25.734 20.438 24.234 36.047-0.9375 9.8906-1.7812 19.031 9.5625 20.062 4.4062 0.42188 7.5 3.8906 8.8125 9.2812 0.89062 3.5625 1.0312 8.1094 0.28125 13.078-0.75 4.7812-2.3438 10.078-4.9688 15.375-7.7344 15.422-24.281 30.656-53.719 32.531-2.7656 8.7656-4.5 17.672-4.5 23.156 0 13.125 2.1094 22.734 4.1719 32.25 0.70312 3.1875 1.4062 6.375 2.0156 9.6562 10.828-1.6875 12.281-4.3594 13.734-6.9375 1.2656-2.2969 2.4844-4.5469 6-6.6094 4.6406-2.7188 7.6875-2.2031 11.297-1.5469 4.8281 0.84375 11.109 1.9688 29.625-12.609-0.5625-3.7969-1.2188-7.5469-1.875-11.297-1.9219-10.875-3.7969-21.703-3.7969-33.234 0-2.1562 1.7344-3.8906 3.8906-3.8906s3.8906 1.7344 3.8906 3.8906c0 10.922 1.8281 21.375 3.7031 31.922 4.3594 24.984 8.8125 50.25-9.2812 84.141-7.0781 13.219-10.312 28.172-13.406 42.328-3.375 15.609-6.6094 30.328-14.578 41.859-1.6875 2.4375-3.1875 6.0469-4.3594 9.7031-2.2031 6.75-3.375 13.312-3.375 13.969 0 2.1562-1.7344 3.8906-3.8906 3.8906s-3.8906-1.7344-3.8906-3.8906c0-0.84375 1.3125-8.8125 3.7969-16.359 1.4062-4.2656 3.1875-8.5312 5.3906-11.719 1.9219-2.7188 3.5156-5.7656 4.9219-8.9531 0.28125-7.0781-4.5-14.062-10.359-22.688-10.031-14.766-23.109-33.984-22.875-68.062 0.09375-12.75-1.9688-22.219-4.0781-31.828-2.1562-9.9375-4.3594-19.969-4.3594-33.938 0-7.5 2.7656-20.391 7.0312-31.688 3.5625-9.5156 8.2969-18.094 13.547-21.797 1.7344-1.2656 4.1719-0.84375 5.4375 0.9375 1.2656 1.7344 0.84375 4.1719-0.9375 5.4375-3.4688 2.4844-6.9844 8.6719-9.8906 15.938 23.906-2.5312 37.5-15.141 43.875-27.938 2.25-4.4531 3.6094-8.9531 4.2188-13.078 0.60938-3.9375 0.51562-7.4062-0.14062-10.031-0.51562-2.0625-1.2188-3.3281-1.9688-3.4219-19.125-1.7344-17.906-14.578-16.594-28.5 1.125-12 2.3438-25.125-17.438-27.562-15.188-1.875-17.578-12.047-20.297-23.625-3.4219-14.578-7.5469-32.016-51.562-30.188-3.9844 0.14062-6.8906-1.3125-10.594-3.1406-7.3594-3.7031-18.609-9.2812-50.719-1.7344-5.4375 18.75-21.141 14.906-35.672 11.297-9.2344-2.2969-17.812-4.4062-19.5 2.3438-4.6406 18.797-16.969 19.172-30.141 15.891-3.0938-0.75-6.0938-1.6875-9.0938-2.625-5.0625-1.5938-9.9844-3.0938-13.734-3.2812-4.2656-0.1875-7.2656 1.9219-7.6406 9.8438-0.70312 14.672-5.6719 18.562-12.703 18.234-3.5156-0.1875-7.1719-1.6406-10.969-3.1875-3.7031-1.5-7.6406-3.0938-10.875-3.1406-6.8906-0.14062-12.75 7.3125-13.406 40.5-0.09375 4.2188-2.2031 5.7656-5.8125 5.7188-2.0625-0.046875-4.4062-0.9375-7.2656-2.0156-3.6094-1.3594-8.2031-3.0938-12.422-3.0938-9.2344 0-18.516 8.8125-18.469 50.391 0 2.3906-2.625 4.5469-6.4688 7.6875-7.0312 5.7656-19.5 16.078-22.688 25.688-2.1562 6.5625 0.9375 13.266 16.125 18.234 4.6406 1.5469 4.875 5.4375 3.0469 11.109-0.75 2.2969-1.9219 5.1094-3.2812 8.2969-0.98438 2.3438-2.0625 4.875-3.2344 7.9688-5.8125 15.188-10.078 34.922 14.062 44.203 6.0469 2.2969 5.6719 10.172 5.2031 19.359-0.09375 2.2969-0.23438 4.6406-0.23438 6.7969-0.09375 8.7656 1.1719 17.344 10.359 17.438 14.953 0.14062 20.672 11.766 26.859 24.375 7.5938 15.422 16.031 32.625 47.625 24 4.2188-1.1719 6.1875-3.5156 8.25-6.0469 5.4375-6.6094 11.484-13.969 43.078-12.562 6.9375 0.32812 13.875-2.4844 19.406-7.0312 3.9844-3.2812 7.125-7.4062 8.9062-11.906-3.9375 0.60938-7.875 0.84375-11.906 0.79688-12.375-0.1875-25.547-3.6094-42.938-10.828-1.9688-0.84375-2.9531-3.0938-2.1094-5.1094 0.84375-1.9688 3.0938-2.9531 5.1094-2.1094 16.5 6.8438 28.781 10.078 40.078 10.266 5.3906 0.09375 10.594-0.51562 15.938-1.7344 0.14062-0.046875 0.32812-0.09375 0.46875-0.09375 5.7188-1.3125 11.672-3.3281 18.234-5.9531 12.938-5.1562 21.469 11.906 28.5 25.969 2.3906 4.7812 4.5938 9.1875 6.5156 11.719 6 7.9688 14.672 16.312 23.531 24.938 18.984 18.375 39.094 37.781 39.188 58.031 2.4375 21.422 2.3906 51.469 2.3906 65.766v2.7656c0.32812 14.906-3.9844 27.656-9.3281 37.688-5.2969 9.9375-11.578 17.203-15.375 21.141l-0.23438 0.1875c-0.14062 0.09375-0.28125 0.23438-0.42188 0.32812l-0.84375 0.60938c-3.1406 2.2031-14.203 9.375-23.484 15.562 5.2031-2.25 10.875-4.5469 16.5-6.5156 12.281-4.2656 24.609-7.0312 32.578-4.5469 4.5 1.4062 4.5938 8.625 4.6875 16.875 0.09375 7.3594 0.1875 15.797 1.8281 16.922 1.125 0.75 4.9219-3.2344 14.016-16.875 11.766-17.672 31.641-5.2969 51.094 6.8438 7.2656 4.5469 14.484 9.0469 20.766 11.531-2.8594-3.4688-6.0938-6.7031-8.9531-9.5625-5.2969-5.3438-9.4219-9.4688-8.7188-13.406 0.84375-4.5 6.8438-5.8125 22.172-2.9062 25.172 4.8281 46.219 15.562 57.656 21.844-4.7812-6.1406-13.875-12.328-23.438-18.797-11.156-7.5469-22.875-15.469-30.094-25.031-2.1094-2.7656-4.5-6.3281-6.2812-12.516-1.6875-5.8594-2.8594-14.109-2.625-26.344zm226.78-232.74c-1.3594-1.6875-1.0781-4.125 0.60938-5.4844s4.125-1.0781 5.4844 0.60938c0.70312 0.84375 1.5938 2.1562 2.6719 3.75 3 4.4062 7.6406 11.203 10.547 12.703 0.23438 0.09375 0.42188 0.23438 0.60938 0.375 3.2344 2.25 6.0938 5.4844 8.3906 8.5781 0.28125-3 0.65625-6.6562 1.2656-11.016 0.46875-3.2812 0.9375-7.9219 1.125-12.75 0.14062-3.6094 0.14062-7.3125-0.14062-10.594-0.1875-2.1562 1.4062-4.0312 3.5625-4.2188s4.0312 1.4062 4.2188 3.5625c0.32812 3.7031 0.32812 7.6875 0.1875 11.578-0.23438 5.1562-0.70312 10.031-1.2188 13.5-1.2188 8.9062-1.5469 14.859-1.6875 18.188-0.14062 2.4844-0.1875 3.8438-0.70312 4.875-1.125 2.25-2.7656 2.8594-4.875 1.9688-0.14062-0.046875-0.28125-0.09375-0.42188-0.1875-1.1719-0.60938-1.9688-1.875-3.1875-3.7969-2.1094-3.4219-6.1406-9.9375-10.828-13.266-4.6406-2.5312-9.8438-10.172-13.219-15.094-0.98438-1.5-1.8281-2.6719-2.2969-3.2812zm96.797-36.656c-0.28125-2.1094 1.1719-4.0781 3.3281-4.4062 2.1094-0.28125 4.0781 1.1719 4.4062 3.3281 0.5625 4.0312 2.2031 8.4844 4.125 13.641 2.4844 6.7031 5.3906 14.484 7.125 24.281 3.9844-7.875 8.5781-13.828 11.766-17.953 1.7812-2.3438 3.0469-3.0469 3-3.4688-0.14062-2.1562 1.5-3.9844 3.6562-4.125s3.9844 1.5 4.125 3.6562c0.14062 2.4844-1.7812 4.9688-4.6406 8.6719-4.7344 6.1406-12.844 16.641-16.453 31.406-0.28125 1.875-1.9219 3.3281-3.8438 3.3281-2.1562 0-3.8906-1.7344-3.8906-3.8906 0-17.438-4.5-29.531-8.1094-39.234-2.1094-5.5781-3.8906-10.453-4.5469-15.281zm86.484 58.031c0.9375-1.9219 3.2812-2.7188 5.25-1.7344 1.9219 0.9375 2.7188 3.2812 1.7344 5.25-3.7969 7.6875-4.5938 14.531-5.3906 21.844-0.70312 6.375-1.4531 13.031-4.0781 21 15.375 5.25 19.688 3.9844 34.781-0.60938l4.6875-1.4531c2.0625-0.60938 4.2188 0.5625 4.875 2.625 0.60938 2.0625-0.5625 4.2188-2.625 4.875l-4.6875 1.4062c-18.281 5.5312-22.5 6.8438-43.359-0.79688l-0.046875-0.046875c-2.0156-0.79688-3-3.0469-2.25-5.0156 3.375-8.6719 4.1719-15.938 4.9688-22.781 0.89062-8.0625 1.7344-15.609 6.1875-24.469zm-274.31-3.1875c-0.14062-0.23438-0.32812-0.46875-0.046875-0.14062 0.046875 0.046875 0.046875 0.09375 0.046875 0.14062zm218.86 28.266c0.42188-11.766 7.5469-25.172 13.734-36.891 5.0156-9.4219 9.4688-17.859 9.9844-24.516 0.14062-2.1562-1.4531-4.0312-3.6094-4.1719s-4.0312 1.4531-4.1719 3.6094c-0.375 5.0156-4.5 12.75-9.0938 21.422-6.6094 12.422-14.156 26.719-14.625 40.359v0.09375c-0.375 11.578-3.0469 23.531-5.7656 35.766-3.2344 14.344-6.5156 29.109-6.5156 44.672 0 2.1562 1.7344 3.8906 3.8906 3.8906 1.0781 0 2.1094-0.46875 2.8125-1.1719 4.7812-4.0781 11.531-11.625 17.719-18.469 4.4531-4.9219 8.5781-9.5625 11.203-12.047 6.5625-6.2812 11.531-13.688 15.094-21.094 2.5781-5.2969 4.4062-10.594 5.5781-15.422l0.14062-0.5625c0.79688-3.3281 1.2656-6.4219 1.4062-9.1406 0.51562-7.7344 1.0781-14.25 2.5312-20.438 1.4062-6.0469 3.6562-11.812 7.5-18.047 1.125-1.8281 0.5625-4.2188-1.3125-5.3438-1.8281-1.125-4.2188-0.5625-5.3438 1.3125-4.3125 7.0312-6.8438 13.547-8.4375 20.344-1.5 6.3281-2.1562 12.938-2.625 20.531-0.75-0.79688-1.6875-1.5938-2.8594-2.3438-2.6719-1.6875-6.4219-0.42188-11.016 1.125-3.5156 1.2188-7.6875 2.625-10.969 2.7188-2.7656 0.09375-5.0156-1.2656-5.2031-6.1406zm5.1562 228.94 0.14062 0.1875c0.046875 0.046875-0.09375-0.14062-0.14062-0.1875zm-21.703-40.641c-0.1875 11.438 2.5312 21.328 5.8594 29.062 3.375 7.7812 7.3125 13.406 9.6562 16.359 0.09375 0.14062 0.23438 0.23438 0.32812 0.375 0.1875 0.1875 0.42188 0.32812 0.75 0.65625 1.3594 1.1719 5.3906 4.0781 9.75 7.2188-1.1719-0.5625-2.3438-1.0781-3.5156-1.5938-8.0625-3.4688-16.219-5.625-21.75-3.5156-3.6094 1.3594-3.6562 7.1719-3.7031 13.734-0.046875 5.5781-0.09375 12.047-0.46875 12.234-0.046875 0.046875-1.5938-3.1875-6.5625-12.375-5.1562-9.5156-12.703-8.8594-21.141-4.3125-4.3594 2.3438-8.8125 5.7656-13.266 9.1875-2.5781 1.9688-5.1094 3.9375-7.5 5.5781 0.84375-1.125 1.7344-2.1562 2.5312-3.1406 3.5625-4.3594 6.2812-7.7812 5.5312-11.062-0.9375-3.9375-5.25-5.1094-15.656-2.6719-12.047 2.8125-22.547 8.25-30.094 12.844 2.9062-2.9531 6.5156-6 10.266-9.0938 7.0781-5.8594 14.484-12.047 19.031-19.5 1.3594-2.2031 2.8594-4.9688 4.0312-9.7969 1.0781-4.5 1.7812-10.828 1.6406-20.297 0.32812-12.281 2.0625-75.75-4.5469-87.562-3.6094-6.4688-7.4531-18.469-10.688-31.266-3.75-14.953-6.6094-30.844-7.2188-40.312-1.2656-19.547-14.016-35.719-25.266-49.922-7.7344-9.75-14.625-18.562-15.75-26.016-0.32812-2.1094-2.2969-3.6094-4.4531-3.2812-2.1094 0.32812-3.6094 2.2969-3.2812 4.4531 0.9375 6.2812 4.5938 12.609 9.375 19.219-12.094 12.938-16.641 11.578-21.141 10.266-6.4688-1.9219-12.891-3.7969-26.484 10.266-1.4531-0.5625-4.9688-2.625-9.1875-5.2969-5.6719-3.6094-11.906-8.2031-16.031-12.094-2.1562-2.0156-3.6094-3.6094-3.75-4.2656-0.89062-4.3125-1.3594-7.3594-1.6875-9.4688-0.51562-3.3281-0.75-4.7812-1.8281-6.1406-1.125-1.4531-2.1094-1.7344-3.7969-2.25-1.5938-0.46875-4.5-1.2656-10.5-5.4375-0.60938-0.42188 0.70312-2.7188 0.84375-7.125 0.1875-6.2344 0.42188-14.344-0.79688-22.406 1.9688-0.28125 3.7969-0.75 5.6719-1.1719 7.7812-1.875 15.516-3.7031 34.312 12.562 0.60938 0.51562 1.3125 0.89062 2.1094 1.0781 3.8906 0.9375 16.078-4.0781 28.266-10.781 11.766-6.4688 24-14.531 28.734-19.969 1.3125-1.5 2.2031-3 2.5312-4.4062 1.5-6.0469 2.25-9.9844 2.8125-12.703 0.51562-2.5781 0.60938-3.6562 0.70312-3.75 0.23438-0.23438 0.1875 0.14062 0.9375-0.046875 3.0469-0.70312 8.7188-2.0156 19.688-8.2031 3.8438-2.1562 3.6562-8.3906 3.3281-17.156-0.375-9.8906-0.84375-23.672 3.2812-35.578 8.2969-23.766-1.2656-28.031-9.5156-31.688-1.3594-0.60938-2.6719-1.1719-3.6562-1.8281-2.5781-1.7344-2.7188-5.625 6.8906-19.922 2.1562-3.2344 3.8438-6.2812 5.1094-9.0938 1.125 0.84375 2.3438 2.0156 3.6562 3.4219 3.0938 3.375 6.5625 8.2969 10.594 15.234 6.5625 11.297 13.875 6.9844 21.281 2.625 4.0312-2.3906 8.1094-4.7812 10.875-0.60938 0.28125 0.42188 0.28125 1.2188 0.32812 2.2969 0.09375 2.3438 0.1875 5.3906 2.0156 10.031 2.0156 5.1094 6.8438 6 12.188 6.9844 4.2188 0.79688 8.9531 1.6406 10.594 6.1875-12.234 5.1562-14.297 16.078-16.172 25.734-1.2188 6.3281-2.2969 11.906-7.3594 12.703-18.328 2.7656-17.297 16.219-16.312 28.547 0.5625 7.2188 1.0781 13.828-4.6875 14.484-3.4219 0.375-5.7188 3.2344-6.7031 7.6875-0.65625 2.8594-0.75 6.6094-0.1875 10.781 0.51562 4.0312 1.6875 8.4375 3.6094 12.75 5.0625 11.531 15.375 22.594 33.234 24.422 1.5938 6.4688 2.625 12.891 2.625 16.969 0 10.078-1.3125 17.438-2.625 24.703-0.375 2.0625-0.75 4.125-1.0781 6.1875-4.5-1.1719-5.2031-2.7188-5.8594-4.2656-0.84375-1.875-1.6406-3.7031-4.125-5.4844-3.5625-2.5312-5.8125-2.0625-8.4844-1.4531-2.5781 0.5625-5.9531 1.2656-16.594-8.9531 0.375-2.8125 0.75-5.625 1.1719-8.4375 1.1719-8.3906 2.3906-16.688 2.3906-25.547 0-2.1562-1.7344-3.8906-3.8906-3.8906s-3.8906 1.7344-3.8906 3.8906c0 8.3906-1.125 16.406-2.2969 24.422-2.7188 19.219-5.5312 38.672 5.8125 64.734 4.4062 10.078 6.4219 21.516 8.3438 32.344 2.1094 12 4.125 23.344 9.1875 32.297 1.0312 1.8281 1.9219 4.5 2.6719 7.3125 1.3594 5.1562 2.1094 10.172 2.1094 10.641 0 2.1562 1.7344 3.8906 3.8906 3.8906s3.8906-1.7344 3.8906-3.8906c0-0.65625-0.84375-6.7969-2.3906-12.609-0.89062-3.2812-2.0156-6.6094-3.4219-9.1406-1.1719-2.0625-2.1562-4.3125-3-6.7031-0.14062-5.3438 2.7656-10.641 6.375-17.156 6.3281-11.391 14.484-26.203 14.344-52.453-0.046875-9.7031 1.2188-17.016 2.5312-24.375 1.3594-7.6406 2.7188-15.375 2.7188-26.062 0-5.1094-1.4062-13.547-3.5625-21.516-0.046875-0.14062-0.046875-0.23438-0.09375-0.32812-0.23438-0.84375-0.46875-1.6875-0.75-2.5312-2.2969-7.4531-5.3438-14.156-8.7656-17.156-1.6406-1.4062-4.0781-1.2656-5.4844 0.375s-1.2656 4.0781 0.375 5.4844c1.875 1.6406 3.75 5.625 5.4375 10.5-12.469-2.3906-19.875-10.688-23.672-19.312-1.5938-3.6562-2.5781-7.3125-3-10.594-0.42188-3.1875-0.375-6 0.09375-8.0625 0.23438-1.0312-0.32812-1.5938-0.046875-1.5938 13.266-1.4531 12.469-11.672 11.625-22.781-0.65625-8.8594-1.4062-18.562 9.7031-20.25 10.547-1.5938 12.094-9.7031 13.875-18.938 2.0625-10.781 4.5469-23.625 30.656-22.312 3.0469 0.14062 5.0625-1.0781 7.6406-2.6719 4.2656-2.625 10.734-6.6094 29.438-1.3594 2.7656 10.875 9.5625 12.094 17.109 10.734 2.3906-0.42188 4.7344-1.1719 7.0781-1.8281 1.8281-0.5625 3.6562-1.125 5.25-1.4062 2.4375-0.46875 4.4062-0.28125 4.9219 2.4375 2.7188 13.5 9.75 15.375 17.766 13.734 2.9531-0.60938 5.9531-1.7344 8.8125-2.8594 3.0938-1.1719 6.0469-2.3438 8.1562-2.3906 1.6875-0.046875 2.9062 1.4062 3.0938 6.6562 0.46875 11.859 4.125 15.094 9.3281 14.906 2.6719-0.09375 5.1562-1.3125 7.7344-2.625 2.1562-1.0781 4.4531-2.2031 6.0469-2.2031 3.4688-0.046875 6.4688 5.5312 6.8438 30.141 0.046875 3.8906 1.9219 5.3438 5.1094 5.2969 1.7344-0.046875 3.375-0.79688 5.3438-1.6875l0.28125-0.14062c2.0625-0.9375 4.5469-2.0625 6.6562-2.0625 5.0156 0 10.125 6.6094 10.078 37.734 0 2.0156 1.7344 3.75 4.2656 6.3281 3.8906 3.9375 10.594 10.734 13.266 17.344 2.2031 5.4844 1.1719 11.203-8.625 15.141-5.2969 2.1562-3.3281 7.8281-0.60938 15.75 4.0781 11.906 10.781 31.266-6.0469 39.188-4.4531 2.1094-4.2188 8.2969-3.9375 15.562 0.046875 1.6406 0.14062 3.3281 0.14062 4.875 0.09375 6.4219-0.46875 12.797-5.0625 12.844-10.453 0.14062-14.156 9.4219-18.188 19.453-4.5 11.297-9.5156 23.859-27.703 17.766-2.1094-0.70312-3.2344-2.3438-4.4062-4.125-3.6094-5.3906-7.6406-11.438-28.359-10.266-3.7969 0.1875-7.6875-1.7812-10.781-4.9219-2.0625-2.1094-3.7969-4.6875-4.875-7.5 1.8281 0.23438 3.7031 0.32812 5.5781 0.28125 8.0156-0.14062 16.5-2.8125 27.609-8.5312 1.9219-0.98438 2.6719-3.3281 1.6875-5.25s-3.3281-2.6719-5.25-1.6875c-10.031 5.1094-17.484 7.5-24.234 7.6406-6.6562 0.14062-12.984-1.9688-20.812-5.7656-6.8906-3.375-11.812 2.5781-15.797 10.734-1.5938 3.2812-2.9531 6.6094-4.2656 9.75-1.5 3.6562-2.8594 6.9844-4.0312 8.8594-3.75 6.0938-9.0938 12.469-14.625 18.984-12 14.25-24.656 29.297-24.656 45-1.5 16.5-1.5 39.375-1.5 50.297v2.1562z" fill-rule="evenodd"/>
</svg>
